<svg width="266" height="352" viewBox="0 0 266 352" fill="none" xmlns="http://www.w3.org/2000/svg">
<g clip-path="url(#clip0_1_1336)">
<path d="M124.604 177.252C124.604 184.93 128.45 191.551 134.094 195.126H241.082C246.866 191.496 250.824 184.735 250.824 176.932V173.552C250.824 161.937 242.197 152.493 231.592 152.493H143.515C133.077 152.493 124.604 161.784 124.604 173.218V177.252Z" fill="white"/>
<path d="M244.886 202.874H129.745C118.29 202.874 108.98 212.165 108.98 223.599V227.647C108.98 239.067 118.29 248.358 129.745 248.358H244.886C256.523 248.358 265.999 238.914 265.999 227.299V223.933C265.999 212.318 256.523 202.874 244.886 202.874Z" fill="white"/>
<path d="M130.624 330.064C130.624 321.705 134.122 314.277 139.599 309.061C125.245 307.572 113.984 295.582 113.984 280.894V276.832C113.984 268.291 117.858 260.697 123.851 255.48C110.946 252.768 101.219 241.32 101.219 227.647V223.599C101.219 210.051 110.779 198.729 123.489 195.863C119.405 190.87 116.841 184.416 116.841 177.252V173.218C116.841 165.011 120.158 157.667 125.37 152.479H104.521H101.581H93.6651L94.6128 147.833L103.504 73.5549C103.546 73.2071 103.643 72.8594 103.783 72.5256C113.775 48.3643 116.284 16.817 93.8045 1.30767C89.9441 -1.34909 84.6066 0.194892 82.767 4.50691L6.94022 182.607C2.34128 191.259 0 200.676 0 210.162V223.488V240.875V248.623V261.601V294.316C0 326.114 25.9213 352 57.7794 352H139.264C133.982 346.798 130.624 339.454 130.624 331.261V330.064Z" fill="white"/>
<path d="M224.499 309.339H157.703C147.041 309.339 138.373 318.644 138.373 330.064V331.261C138.373 342.681 147.041 351.972 157.703 351.972H224.499C235.327 351.972 244.135 342.528 244.135 330.913C244.135 318.797 235.327 309.339 224.499 309.339Z" fill="white"/>
<path d="M237.779 256.106H142.511C131.055 256.106 121.746 265.398 121.746 276.832V280.893C121.746 292.299 131.055 301.605 142.511 301.605H237.779C249.416 301.605 258.878 292.146 258.878 280.532V277.179C258.878 265.551 249.416 256.106 237.779 256.106Z" fill="white"/>
</g>
<defs>
<clipPath id="clip0_1_1336">
<rect width="266" height="352" fill="white"/>
</clipPath>
</defs>
</svg>
